<?xml version="1.0" encoding="utf-8"?>
<!-- Generator: Adobe Illustrator 16.0.0, SVG Export Plug-In . SVG Version: 6.00 Build 0)  -->
<!DOCTYPE svg PUBLIC "-//W3C//DTD SVG 1.1//EN" "http://www.w3.org/Graphics/SVG/1.1/DTD/svg11.dtd">
<svg version="1.1" id="Layer_1" xmlns="http://www.w3.org/2000/svg" xmlns:xlink="http://www.w3.org/1999/xlink" x="0px" y="0px"
	 width="200px" height="200px" viewBox="0 0 200 200" enable-background="new 0 0 200 200" xml:space="preserve">
<path fill="#D2D2D2" d="M126.924,86.772l-7.726-25.346L54.021,81.292l14.997,49.198l9.19-2.801v10.517h68.138V86.772H126.924z
	 M73.416,122.232L62.278,85.69l52.521-16.008l5.209,17.091h-41.8v34L73.416,122.232z M139.729,131.59H84.822V93.387h54.907V131.59
	L139.729,131.59z M93.563,103.656c0-2.789,2.26-5.049,5.049-5.049s5.049,2.261,5.049,5.049c0,2.789-2.261,5.049-5.049,5.049
	C95.822,108.705,93.563,106.445,93.563,103.656z M119.171,103.816l-8.368,11.892l-4.55-4.688l-12.834,14.584h40.117L119.171,103.816
	z"/>
</svg>
