<?xml version="1.0" encoding="utf-8"?>
<!-- Generator: Adobe Illustrator 16.0.0, SVG Export Plug-In . SVG Version: 6.00 Build 0)  -->
<!DOCTYPE svg PUBLIC "-//W3C//DTD SVG 1.1//EN" "http://www.w3.org/Graphics/SVG/1.1/DTD/svg11.dtd">
<svg version="1.1" id="Layer_1" xmlns="http://www.w3.org/2000/svg" xmlns:xlink="http://www.w3.org/1999/xlink" x="0px" y="0px"
	 width="200px" height="200px" viewBox="0 0 200 200" enable-background="new 0 0 200 200" xml:space="preserve">
<path fill="#D2D2D2" stroke="#D2D2D2" stroke-miterlimit="10" d="M146.789,56.675l-56.551-8.397
	c-1.632-0.215-3.073,1.077-3.36,2.907l-8.929,75.894c-0.192,1.83,0.96,3.445,2.592,3.769l56.552,8.288
	c1.632,0.216,3.072-1.076,3.36-2.906l8.929-75.894C149.574,58.504,148.422,56.89,146.789,56.675z M134.309,116.744l-45.895-6.782
	l6.049-51.458l45.894,6.782L134.309,116.744z M132.483,113.945l-41.573-6.137l1.632-13.995l15.362-11.411l9.313,10.334
	l19.299-13.887L132.483,113.945z M105.216,141.288l-35.333,11.411c-1.152,0.431-2.4-0.431-2.784-1.723L52.697,94.998
	c-0.384-1.292,0.384-2.691,1.536-3.122l23.619-7.643l-5.665,48.443c-0.288,2.045,1.056,3.982,2.881,4.198L105.216,141.288z"/>
</svg>
