<?xml version="1.0" encoding="utf-8"?>
<!-- Generator: Adobe Illustrator 16.0.0, SVG Export Plug-In . SVG Version: 6.00 Build 0)  -->
<!DOCTYPE svg PUBLIC "-//W3C//DTD SVG 1.1//EN" "http://www.w3.org/Graphics/SVG/1.1/DTD/svg11.dtd">
<svg version="1.1" id="Layer_1" xmlns="http://www.w3.org/2000/svg" xmlns:xlink="http://www.w3.org/1999/xlink" x="0px" y="0px"
	 width="100px" height="100px" viewBox="0 0 100 100" enable-background="new 0 0 100 100" xml:space="preserve">
<rect id="_x3C_Slice_x3E__14_" fill="none" width="100" height="100"/>
<path fill="#0099FF" d="M63.554,44.294l-3.862-12.673l-32.589,9.933l7.498,24.599l4.595-1.4v5.259h34.069V44.294H63.554z
	 M36.8,62.024L31.23,43.753l26.261-8.004l2.604,8.546h-20.9v17L36.8,62.024z M69.956,66.703H42.503V47.602h27.453V66.703
	L69.956,66.703z M46.873,52.736c0-1.395,1.13-2.524,2.524-2.524c1.395,0,2.524,1.13,2.524,2.524s-1.13,2.524-2.524,2.524
	S46.873,54.131,46.873,52.736z M59.678,52.816l-4.185,5.945l-2.274-2.344l-6.417,7.292h20.058L59.678,52.816z"/>
</svg>
